<svg width="159" height="25" viewBox="0 0 159 25" fill="none" xmlns="http://www.w3.org/2000/svg">
<path d="M10.7969 24V21.1562H10.7344C10.2135 22.1771 9.5 22.9688 8.59375 23.5312C7.69792 24.0938 6.68229 24.375 5.54688 24.375C4.77604 24.375 4.07812 24.2656 3.45312 24.0469C2.83854 23.8281 2.3125 23.5208 1.875 23.125C1.44792 22.7188 1.11458 22.2344 0.875 21.6719C0.645833 21.1094 0.53125 20.4896 0.53125 19.8125C0.53125 18.3646 0.979167 17.2135 1.875 16.3594C2.77083 15.4948 4.125 14.9323 5.9375 14.6719L10.7969 13.9688C10.7969 10.8958 9.60417 9.35938 7.21875 9.35938C5.35417 9.35938 3.625 10.0417 2.03125 11.4062V9.21875C2.36458 8.97917 2.73958 8.76562 3.15625 8.57812C3.58333 8.38021 4.03125 8.21354 4.5 8.07812C4.96875 7.93229 5.44792 7.82292 5.9375 7.75C6.4375 7.66667 6.92188 7.625 7.39062 7.625C9.17188 7.625 10.5156 8.125 11.4219 9.125C12.3385 10.125 12.7969 11.6146 12.7969 13.5938V24H10.7969ZM6.67188 16.2344C5.95312 16.3385 5.33854 16.4688 4.82812 16.625C4.31771 16.7812 3.89583 16.9948 3.5625 17.2656C3.22917 17.526 2.98438 17.8542 2.82812 18.25C2.67188 18.6354 2.59375 19.1146 2.59375 19.6875C2.59375 20.1146 2.66667 20.5104 2.8125 20.875C2.96875 21.2396 3.1875 21.5573 3.46875 21.8281C3.76042 22.0885 4.10938 22.2917 4.51562 22.4375C4.93229 22.5833 5.40104 22.6562 5.92188 22.6562C6.63021 22.6562 7.28125 22.5208 7.875 22.25C8.46875 21.9792 8.97917 21.6042 9.40625 21.125C9.84375 20.6458 10.1823 20.0729 10.4219 19.4062C10.6719 18.7396 10.7969 18.0156 10.7969 17.2344V15.6562L6.67188 16.2344ZM28.0781 24V21.2812H28.0156C26.9323 23.3438 25.25 24.375 22.9688 24.375C19.1667 24.375 17.2656 22.0521 17.2656 17.4062V8H19.2656V17.0312C19.2656 18.9479 19.6042 20.3646 20.2812 21.2812C20.9688 22.1979 22.0156 22.6562 23.4219 22.6562C24.1094 22.6562 24.7344 22.526 25.2969 22.2656C25.8698 21.9948 26.3594 21.6198 26.7656 21.1406C27.1823 20.651 27.5052 20.0677 27.7344 19.3906C27.9635 18.7135 28.0781 17.9635 28.0781 17.1406V8H30.0781V24H28.0781ZM42.1094 23.8125C41.4219 24.1562 40.6719 24.3281 39.8594 24.3281C37.276 24.3281 35.9844 22.8385 35.9844 19.8594V9.75H33.1719V8H35.9844V3.96875L37.9844 3.3125V8H42.1094V9.75H37.9844V19.5469C37.9844 20.6302 38.1615 21.4115 38.5156 21.8906C38.8698 22.3698 39.4688 22.6094 40.3125 22.6094C40.9375 22.6094 41.5365 22.4219 42.1094 22.0469V23.8125ZM51.9688 24.375C50.7812 24.375 49.7135 24.1771 48.7656 23.7812C47.8281 23.3854 47.026 22.8281 46.3594 22.1094C45.6927 21.3802 45.1823 20.5104 44.8281 19.5C44.474 18.4896 44.2969 17.3698 44.2969 16.1406C44.2969 14.8073 44.4844 13.6146 44.8594 12.5625C45.2344 11.5104 45.7656 10.6198 46.4531 9.89062C47.151 9.15104 47.9896 8.58854 48.9688 8.20312C49.9479 7.81771 51.0417 7.625 52.25 7.625C53.4062 7.625 54.4479 7.81771 55.375 8.20312C56.3021 8.57812 57.0885 9.125 57.7344 9.84375C58.3802 10.5625 58.875 11.4375 59.2188 12.4688C59.5625 13.5 59.7344 14.6719 59.7344 15.9844C59.7344 17.2344 59.5521 18.375 59.1875 19.4062C58.8333 20.4271 58.3229 21.3073 57.6562 22.0469C56.9896 22.7865 56.1771 23.3594 55.2188 23.7656C54.2604 24.1719 53.1771 24.375 51.9688 24.375ZM52.125 9.35938C51.25 9.35938 50.4583 9.51042 49.75 9.8125C49.0417 10.1146 48.4323 10.5573 47.9219 11.1406C47.4219 11.7135 47.0365 12.4219 46.7656 13.2656C46.4948 14.099 46.3594 15.0469 46.3594 16.1094C46.3594 17.1094 46.4948 18.0104 46.7656 18.8125C47.0365 19.6146 47.4167 20.3021 47.9062 20.875C48.4062 21.4479 49.0104 21.8906 49.7188 22.2031C50.4271 22.5052 51.2188 22.6562 52.0938 22.6562C52.9896 22.6562 53.7812 22.5104 54.4688 22.2188C55.1562 21.9167 55.7396 21.4844 56.2188 20.9219C56.6979 20.349 57.0573 19.651 57.2969 18.8281C57.5469 18.0052 57.6719 17.0677 57.6719 16.0156C57.6719 13.8594 57.1927 12.2135 56.2344 11.0781C55.276 9.93229 53.9062 9.35938 52.125 9.35938ZM65.7656 21.4219V24H63.7656V0.3125H65.7656V11.0625H65.8281C66.4219 9.94792 67.2135 9.09896 68.2031 8.51562C69.2031 7.92188 70.3281 7.625 71.5781 7.625C72.599 7.625 73.5104 7.8125 74.3125 8.1875C75.125 8.55208 75.8073 9.07812 76.3594 9.76562C76.9219 10.4531 77.349 11.2812 77.6406 12.25C77.9427 13.2188 78.0938 14.2969 78.0938 15.4844C78.0938 16.8073 77.9219 18.0156 77.5781 19.1094C77.2448 20.1927 76.7656 21.125 76.1406 21.9062C75.5156 22.6875 74.7552 23.2969 73.8594 23.7344C72.974 24.1615 71.9792 24.375 70.875 24.375C68.6146 24.375 66.9323 23.3906 65.8281 21.4219H65.7656ZM65.7656 17.3438C65.7656 18.0729 65.8854 18.7604 66.125 19.4062C66.375 20.0417 66.7188 20.6042 67.1562 21.0938C67.5938 21.5729 68.1198 21.9531 68.7344 22.2344C69.3594 22.5156 70.0469 22.6562 70.7969 22.6562C71.599 22.6562 72.3229 22.4896 72.9688 22.1562C73.6146 21.8125 74.1615 21.3281 74.6094 20.7031C75.0677 20.0781 75.4167 19.3229 75.6562 18.4375C75.9062 17.5521 76.0312 16.5625 76.0312 15.4688C76.0312 14.5312 75.9167 13.6875 75.6875 12.9375C75.4583 12.1771 75.1302 11.5312 74.7031 11C74.2865 10.4688 73.776 10.0625 73.1719 9.78125C72.5781 9.5 71.9115 9.35938 71.1719 9.35938C70.3385 9.35938 69.5885 9.51562 68.9219 9.82812C68.2552 10.1302 67.6875 10.5469 67.2188 11.0781C66.75 11.6094 66.3906 12.2344 66.1406 12.9531C65.8906 13.6615 65.7656 14.4167 65.7656 15.2188V17.3438ZM83.125 3.95312C82.7396 3.95312 82.4062 3.81771 82.125 3.54688C81.8438 3.27604 81.7031 2.93229 81.7031 2.51562C81.7031 2.10938 81.8438 1.77604 82.125 1.51562C82.4062 1.24479 82.7396 1.10938 83.125 1.10938C83.3229 1.10938 83.5104 1.14583 83.6875 1.21875C83.8646 1.28125 84.0156 1.375 84.1406 1.5C84.276 1.625 84.3802 1.77604 84.4531 1.95312C84.5365 2.11979 84.5781 2.30729 84.5781 2.51562C84.5781 2.71354 84.5417 2.90104 84.4688 3.07812C84.3958 3.25521 84.2917 3.41146 84.1562 3.54688C84.0208 3.67188 83.8646 3.77083 83.6875 3.84375C83.5208 3.91667 83.3333 3.95312 83.125 3.95312ZM82.1406 24V8H84.1406V24H82.1406ZM96.1719 23.8125C95.4844 24.1562 94.7344 24.3281 93.9219 24.3281C91.3385 24.3281 90.0469 22.8385 90.0469 19.8594V9.75H87.2344V8H90.0469V3.96875L92.0469 3.3125V8H96.1719V9.75H92.0469V19.5469C92.0469 20.6302 92.224 21.4115 92.5781 21.8906C92.9323 22.3698 93.5312 22.6094 94.375 22.6094C95 22.6094 95.599 22.4219 96.1719 22.0469V23.8125ZM98.5781 21.125C98.8802 21.3646 99.2083 21.5781 99.5625 21.7656C99.9167 21.9531 100.281 22.1146 100.656 22.25C101.031 22.3854 101.406 22.4896 101.781 22.5625C102.167 22.625 102.531 22.6562 102.875 22.6562C105.25 22.6562 106.438 21.7656 106.438 19.9844C106.438 19.5781 106.354 19.2292 106.188 18.9375C106.021 18.6354 105.781 18.3646 105.469 18.125C105.156 17.875 104.781 17.6458 104.344 17.4375C103.906 17.2292 103.411 17.0104 102.859 16.7812C102.12 16.4792 101.484 16.1719 100.953 15.8594C100.422 15.5469 99.9844 15.2083 99.6406 14.8438C99.2969 14.4688 99.0417 14.0625 98.875 13.625C98.7083 13.1771 98.625 12.6719 98.625 12.1094C98.625 11.401 98.776 10.7708 99.0781 10.2188C99.3906 9.66667 99.8073 9.19792 100.328 8.8125C100.849 8.42708 101.448 8.13542 102.125 7.9375C102.812 7.72917 103.531 7.625 104.281 7.625C105.667 7.625 106.875 7.88542 107.906 8.40625V10.5156C106.708 9.74479 105.417 9.35938 104.031 9.35938C103.531 9.35938 103.073 9.42188 102.656 9.54688C102.25 9.67188 101.901 9.84896 101.609 10.0781C101.318 10.3073 101.089 10.5833 100.922 10.9062C100.766 11.2188 100.688 11.5677 100.688 11.9531C100.688 12.349 100.75 12.6979 100.875 13C101 13.2917 101.193 13.5573 101.453 13.7969C101.724 14.0365 102.068 14.2656 102.484 14.4844C102.911 14.7031 103.427 14.9375 104.031 15.1875C104.802 15.5 105.469 15.8125 106.031 16.125C106.594 16.4271 107.057 16.7604 107.422 17.125C107.786 17.4792 108.057 17.8802 108.234 18.3281C108.411 18.7656 108.5 19.276 108.5 19.8594C108.5 20.5781 108.349 21.2188 108.047 21.7812C107.755 22.3438 107.344 22.8177 106.812 23.2031C106.292 23.5885 105.677 23.8802 104.969 24.0781C104.26 24.276 103.49 24.375 102.656 24.375C101.042 24.375 99.6823 24.0365 98.5781 23.3594V21.125ZM131.047 7.34375C131.047 6.63542 130.938 6.01042 130.719 5.46875C130.51 4.91667 130.214 4.45833 129.828 4.09375C129.443 3.71875 128.979 3.4375 128.438 3.25C127.896 3.0625 127.297 2.96875 126.641 2.96875C125.641 2.96875 124.677 3.20833 123.75 3.6875C122.833 4.15625 121.969 4.78646 121.156 5.57812V3.35938C121.948 2.68229 122.812 2.15625 123.75 1.78125C124.688 1.40625 125.745 1.21875 126.922 1.21875C127.109 1.21875 127.286 1.22917 127.453 1.25C127.63 1.27083 127.802 1.30208 127.969 1.34375C128.74 1.42708 129.438 1.625 130.062 1.9375C130.698 2.23958 131.24 2.63542 131.688 3.125C132.135 3.61458 132.479 4.19792 132.719 4.875C132.969 5.54167 133.094 6.28646 133.094 7.10938C133.094 8.06771 132.969 8.92708 132.719 9.6875C132.469 10.4479 132.109 11.151 131.641 11.7969C131.182 12.4323 130.625 13.0365 129.969 13.6094C129.323 14.1719 128.599 14.7396 127.797 15.3125C126.901 15.9583 126.13 16.5312 125.484 17.0312C124.849 17.5208 124.318 17.9896 123.891 18.4375C123.474 18.8854 123.156 19.3333 122.938 19.7812C122.719 20.2292 122.578 20.7292 122.516 21.2812C122.464 21.4271 122.427 21.5729 122.406 21.7188C122.396 21.8646 122.391 22.026 122.391 22.2031H133.547V24H120.281V22.9219C120.281 21.9219 120.396 21.0573 120.625 20.3281C120.865 19.5885 121.234 18.901 121.734 18.2656C122.234 17.6198 122.875 16.9792 123.656 16.3438C124.438 15.7083 125.375 14.9948 126.469 14.2031C127.208 13.6615 127.865 13.1406 128.438 12.6406C129.01 12.1302 129.49 11.6094 129.875 11.0781C130.26 10.5365 130.552 9.96354 130.75 9.35938C130.948 8.75521 131.047 8.08333 131.047 7.34375ZM139.062 24.3125C138.646 24.3125 138.292 24.1667 138 23.875C137.708 23.5833 137.562 23.2292 137.562 22.8125C137.562 22.3854 137.703 22.026 137.984 21.7344C138.276 21.4427 138.635 21.2969 139.062 21.2969C139.271 21.2969 139.464 21.3385 139.641 21.4219C139.828 21.4948 139.99 21.599 140.125 21.7344C140.26 21.8594 140.37 22.0156 140.453 22.2031C140.536 22.3906 140.578 22.5938 140.578 22.8125C140.578 23.0208 140.536 23.2188 140.453 23.4062C140.37 23.5833 140.26 23.7396 140.125 23.875C139.99 24.0104 139.828 24.1146 139.641 24.1875C139.464 24.2708 139.271 24.3125 139.062 24.3125ZM150.812 24.375C149.74 24.375 148.781 24.1354 147.938 23.6562C147.094 23.1771 146.375 22.474 145.781 21.5469C145.198 20.6094 144.75 19.4479 144.438 18.0625C144.135 16.6771 143.984 15.0781 143.984 13.2656C143.984 9.28646 144.609 6.28646 145.859 4.26562C147.12 2.23438 148.932 1.21875 151.297 1.21875C155.797 1.21875 158.047 5.04688 158.047 12.7031C158.047 14.599 157.885 16.2708 157.562 17.7188C157.24 19.1667 156.766 20.3854 156.141 21.375C155.526 22.3646 154.771 23.1146 153.875 23.625C152.979 24.125 151.958 24.375 150.812 24.375ZM151.172 2.96875C149.505 2.96875 148.234 3.8125 147.359 5.5C146.484 7.1875 146.047 9.72396 146.047 13.1094C146.047 16.2344 146.464 18.6094 147.297 20.2344C148.141 21.849 149.385 22.6562 151.031 22.6562C151.833 22.6562 152.542 22.4479 153.156 22.0312C153.781 21.6042 154.302 20.9844 154.719 20.1719C155.135 19.349 155.448 18.3333 155.656 17.125C155.875 15.9167 155.984 14.526 155.984 12.9531C155.984 6.29688 154.38 2.96875 151.172 2.96875Z" fill="#2D2E30" fill-opacity="0.4"/>
</svg>
